<svg width="32" height="32" viewBox="0 0 32 32" fill="none" xmlns="http://www.w3.org/2000/svg">
<path d="M28.5714 0H3.42857C1.53571 0 0 1.53571 0 3.42857V28.5714C0 30.4643 1.53571 32 3.42857 32H28.5714C30.4643 32 32 30.4643 32 28.5714V3.42857C32 1.53571 30.4643 0 28.5714 0Z" fill="black"/>
<path d="M24.2029 8.77031C22.7108 8.0974 21.1114 7.60003 19.4389 7.31721C19.424 7.31435 19.4086 7.31619 19.3948 7.32248C19.381 7.32877 19.3695 7.3392 19.3618 7.35232C19.157 7.71218 18.9288 8.18127 18.7689 8.55186C16.995 8.28683 15.1916 8.28683 13.4178 8.55186C13.2396 8.14115 13.0387 7.74068 12.8161 7.35232C12.8085 7.33904 12.7971 7.32837 12.7833 7.32175C12.7696 7.31513 12.7541 7.31287 12.739 7.31526C11.0674 7.59808 9.46806 8.09545 7.97497 8.76934C7.96212 8.77473 7.95123 8.78391 7.94376 8.79567C4.90882 13.2574 4.07694 17.6089 4.48557 21.9058C4.4867 21.9163 4.48997 21.9265 4.49517 21.9357C4.50037 21.9449 4.50739 21.953 4.5158 21.9594C6.28721 23.2491 8.26299 24.2316 10.3604 24.8656C10.375 24.8701 10.3907 24.8701 10.4053 24.8656C10.4199 24.8611 10.4328 24.8523 10.4423 24.8403C10.8937 24.2367 11.2936 23.5963 11.638 22.9259C11.6427 22.9167 11.6455 22.9066 11.646 22.8963C11.6466 22.886 11.6449 22.8757 11.6411 22.8661C11.6373 22.8564 11.6315 22.8478 11.6241 22.8406C11.6166 22.8334 11.6077 22.8279 11.598 22.8245C10.968 22.5872 10.3576 22.3009 9.77233 21.9682C9.76182 21.9622 9.75296 21.9537 9.74654 21.9434C9.74013 21.9331 9.73637 21.9214 9.7356 21.9094C9.73483 21.8973 9.73706 21.8852 9.74211 21.8742C9.74716 21.8632 9.75487 21.8536 9.76453 21.8463C9.88741 21.7556 10.0103 21.661 10.1273 21.5664C10.1379 21.5579 10.1505 21.5525 10.164 21.5508C10.1774 21.549 10.191 21.5511 10.2034 21.5567C14.0331 23.277 18.1808 23.277 21.9657 21.5567C21.9781 21.5508 21.9919 21.5484 22.0055 21.55C22.0191 21.5516 22.0321 21.5569 22.0428 21.5654C22.1598 21.661 22.2817 21.7556 22.4056 21.8463C22.4153 21.8534 22.4232 21.8629 22.4284 21.8738C22.4336 21.8847 22.436 21.8968 22.4354 21.9088C22.4348 21.9209 22.4313 21.9327 22.425 21.943C22.4188 21.9534 22.4101 21.962 22.3997 21.9682C21.8165 22.3037 21.2099 22.5875 20.5731 22.8235C20.5633 22.827 20.5544 22.8326 20.547 22.8399C20.5395 22.8472 20.5337 22.856 20.5299 22.8656C20.5261 22.8753 20.5245 22.8857 20.525 22.8961C20.5256 22.9065 20.5283 22.9167 20.5331 22.9259C20.8842 23.5959 21.286 24.2337 21.7278 24.8393C21.737 24.8517 21.7498 24.861 21.7644 24.8659C21.7791 24.8708 21.7949 24.871 21.8097 24.8666C23.9107 24.2343 25.8897 23.2514 27.6631 21.9594C27.6717 21.9534 27.679 21.9456 27.6844 21.9365C27.6898 21.9274 27.6931 21.9173 27.6943 21.9068C28.1819 16.9389 26.877 12.6225 24.2332 8.79762C24.2267 8.78519 24.216 8.7755 24.2029 8.77031ZM12.2104 19.2892C11.0577 19.2892 10.1068 18.2467 10.1068 16.9682C10.1068 15.6887 11.0392 14.6471 12.2104 14.6471C13.3905 14.6471 14.3325 15.6974 14.314 16.9682C14.314 18.2477 13.3817 19.2892 12.2104 19.2892V19.2892ZM19.988 19.2892C18.8342 19.2892 17.8844 18.2467 17.8844 16.9682C17.8844 15.6887 18.8157 14.6471 19.988 14.6471C21.168 14.6471 22.1101 15.6974 22.0915 16.9682C22.0915 18.2477 21.169 19.2892 19.988 19.2892V19.2892Z" fill="white"/>
</svg>
